<svg xmlns="http://www.w3.org/2000/svg" version="1.1" xmlns:xlink="http://www.w3.org/1999/xlink" xmlns:svgjs="http://svgjs.dev/svgjs" width="1920" height="600" preserveAspectRatio="none" viewBox="0 0 1920 600"><g mask="url(&quot;#SvgjsMask1364&quot;)" fill="none"><rect width="1920" height="600" x="0" y="0" fill="url(&quot;#SvgjsLinearGradient1365&quot;)"></rect><path d="M1790.26 226.87 a52.92 52.92 0 1 0 105.84 0 a52.92 52.92 0 1 0 -105.84 0z" stroke="#037b0b"></path><path d="M431.76 375.07L439.98 375.07L439.98 393.72L431.76 393.72z" stroke="#d3b714"></path><path d="M825.39 582.3 a27.11 27.11 0 1 0 54.22 0 a27.11 27.11 0 1 0 -54.22 0z" stroke="#e73635"></path><path d="M773.95 256.44L789.36 256.44L789.36 271.85L773.95 271.85z" stroke="#d3b714"></path><path d="M966.83 80.49 a28.14 28.14 0 1 0 56.28 0 a28.14 28.14 0 1 0 -56.28 0z" fill="#d3b714"></path><path d="M455.41 241.93L499.76 241.93L499.76 243.73L455.41 243.73z" stroke="#d3b714"></path><path d="M1557.96 414.17L1579.49 414.17L1579.49 419.36L1557.96 419.36z" stroke="#e73635"></path><path d="M611.85 410.9L665.22 410.9L665.22 451.93L611.85 451.93z" stroke="#e73635"></path><path d="M113.25 364.71L161.38 364.71L161.38 412.84L113.25 412.84z" stroke="#037b0b"></path><path d="M651.86 416.41L654.24 416.41L654.24 455.15L651.86 455.15z" fill="#037b0b"></path><path d="M331.17 414.23 a3.25 3.25 0 1 0 6.5 0 a3.25 3.25 0 1 0 -6.5 0z" stroke="#e73635"></path><path d="M1795.5 173.29a20.13 20.13 0 1 0 15.37-37.21z" stroke="#d3b714"></path><path d="M1132.15 334.83 a44.29 44.29 0 1 0 88.58 0 a44.29 44.29 0 1 0 -88.58 0z" fill="#e73635"></path><path d="M576.96 485.3a7.47 7.47 0 1 0 6.16 13.61z" fill="#e73635"></path><path d="M187.96 106.68a58.29 58.29 0 1 0-11.17 116.04z" stroke="#d3b714"></path><path d="M592.08 153.38a22.77 22.77 0 1 0 26.95 36.7z" fill="#d3b714"></path><path d="M1305.18 221.62 a2.69 2.69 0 1 0 5.38 0 a2.69 2.69 0 1 0 -5.38 0z" stroke="#037b0b"></path><path d="M1051.47 598.41 a51.13 51.13 0 1 0 102.26 0 a51.13 51.13 0 1 0 -102.26 0z" stroke="#d3b714"></path><path d="M564.2 220.21L615.82 220.21L615.82 245.96L564.2 245.96z" fill="#e73635"></path><path d="M1268.72 355.63 a4.18 4.18 0 1 0 8.36 0 a4.18 4.18 0 1 0 -8.36 0z" fill="#e73635"></path><path d="M677.78 209.54a59.17 59.17 0 1 0-89.71-77.18z" fill="#037b0b"></path><path d="M294.35 590.71 a18.44 18.44 0 1 0 36.88 0 a18.44 18.44 0 1 0 -36.88 0z" stroke="#037b0b"></path><path d="M29.07 442.93L34.94 442.93L34.94 448.8L29.07 448.8z" stroke="#d3b714"></path><path d="M711.65 492.98 a45.54 45.54 0 1 0 91.08 0 a45.54 45.54 0 1 0 -91.08 0z" stroke="#d3b714"></path><path d="M544.72 260.29 a35.8 35.8 0 1 0 71.6 0 a35.8 35.8 0 1 0 -71.6 0z" stroke="#e73635"></path><path d="M1462.18 439.78L1462.59 439.78L1462.59 440.19L1462.18 440.19z" stroke="#037b0b"></path><path d="M995.66 140.6L1054.39 140.6L1054.39 200.02L995.66 200.02z" fill="#e73635"></path><path d="M208.45 526.48 a8.46 8.46 0 1 0 16.92 0 a8.46 8.46 0 1 0 -16.92 0z" stroke="#e73635"></path><path d="M1281.29 400.7 a0.02 0.02 0 1 0 0.04 0 a0.02 0.02 0 1 0 -0.04 0z" fill="#d3b714"></path><path d="M1491.3 417.96L1496.35 417.96L1496.35 458.84L1491.3 458.84z" stroke="#e73635"></path><path d="M410.73 209.84L436 209.84L436 235.11L410.73 235.11z" stroke="#037b0b"></path><path d="M59.49 530.45L111.47 530.45L111.47 582.43L59.49 582.43z" stroke="#037b0b"></path><path d="M216.79 214.5 a31.39 31.39 0 1 0 62.78 0 a31.39 31.39 0 1 0 -62.78 0z" stroke="#037b0b"></path><path d="M1552.38 516.71L1553.65 516.71L1553.65 531.51L1552.38 531.51z" fill="#d3b714"></path><path d="M1339.08 157.13L1379.95 157.13L1379.95 197.92L1339.08 197.92z" fill="#e73635"></path><path d="M1802.03 522.65L1860.58 522.65L1860.58 581.2L1802.03 581.2z" stroke="#037b0b"></path><path d="M1397.55 187.19 a44.52 44.52 0 1 0 89.04 0 a44.52 44.52 0 1 0 -89.04 0z" fill="#d3b714"></path><path d="M1755.98 482.36 a42.72 42.72 0 1 0 85.44 0 a42.72 42.72 0 1 0 -85.44 0z" stroke="#e73635"></path><path d="M1793.11 186.35a5.1 5.1 0 1 0-6.28 8.04z" fill="#037b0b"></path><path d="M1438.44 507.99L1477.44 507.99L1477.44 546.99L1438.44 546.99z" stroke="#e73635"></path></g><defs><mask id="SvgjsMask1364"><rect width="1920" height="600" fill="#ffffff"></rect></mask><linearGradient x1="0%" y1="50%" x2="100%" y2="50%" gradientUnits="userSpaceOnUse" id="SvgjsLinearGradient1365"><stop stop-color="#0e2a47" offset="0"></stop><stop stop-color="rgba(2, 36, 80, 1)" offset="1"></stop></linearGradient></defs></svg>