<svg width="36" height="30" viewBox="0 0 36 30" fill="none" xmlns="http://www.w3.org/2000/svg">
<path d="M24.8123 8.89534C27.5996 8.89534 29.8672 6.90018 29.8672 4.44767C29.8672 1.99516 27.5996 0 24.8123 0C22.0251 0 19.7575 1.99516 19.7575 4.44767C19.7575 6.90018 22.0251 8.89534 24.8123 8.89534ZM24.8123 2.28596C26.167 2.28596 27.2691 3.2557 27.2691 4.44767C27.2691 5.63963 26.167 6.60937 24.8123 6.60937C23.4576 6.60937 22.3556 5.63963 22.3556 4.44767C22.3556 3.2557 23.4576 2.28596 24.8123 2.28596Z" fill="#3EC5FF"/>
<path d="M35.6255 10.9097C35.1218 10.4602 34.2994 10.4546 33.7885 10.8979C33.7584 10.9244 30.2965 13.3509 19.9929 9.47621C15.5365 7.80043 11.9532 7.64237 9.34233 9.00611C6.15525 10.6708 5.76461 13.943 5.74958 14.0814C5.68147 14.7073 6.20127 15.261 6.91221 15.3244C6.95638 15.3283 7.00036 15.3302 7.04379 15.3302C7.70017 15.3302 8.26395 14.8918 8.33503 14.3055C8.33781 14.2828 8.63473 12.0208 10.6885 10.9614C12.5205 10.0163 15.3851 10.2296 18.9715 11.5783C23.8394 13.4087 27.4206 13.9745 29.9894 13.9743C33.7647 13.9742 35.3518 12.7517 35.612 12.526C36.123 12.0829 36.129 11.3592 35.6255 10.9097Z" fill="#3EC5FF"/>
<path d="M19.1178 14.4105C18.6229 13.9552 17.803 13.9381 17.2842 14.3721C11.0713 19.5681 1.6026 27.4596 0.922835 27.9528C0.362024 28.3341 0.251606 29.0424 0.678431 29.5429C0.933599 29.8422 1.32368 30.0001 1.71859 30.0001C1.98971 30.0001 2.26344 29.9255 2.49708 29.7713C3.0887 29.3808 13.6339 20.5769 18.1354 16.8138L24.396 22.5728C24.6736 22.8282 24.5814 23.1076 24.5287 23.2158C24.4762 23.3241 24.3106 23.5759 23.9091 23.5759H15.3393C14.6219 23.5759 14.0403 24.0876 14.0403 24.7189C14.0403 25.3501 14.6219 25.8618 15.3393 25.8618H23.9089C25.2413 25.8618 26.3943 25.1921 26.9176 24.1141C27.4411 23.0359 27.1943 21.84 26.2733 20.9929L19.1178 14.4105Z" fill="#3EC5FF"/>
</svg>
