<svg width="41" height="38" viewBox="0 0 41 38" fill="none" xmlns="http://www.w3.org/2000/svg">
<path d="M27.2395 0C27.2395 0 30.7733 8.21275 15.6284 13.7292C7.39897 16.7259 1.07831 24.4066 8.62517 36.2714C9.25018 30.968 11.9301 19.2748 23.4539 16.6065C23.4539 16.6065 12.7283 20.4165 11.7808 37.6631C17.2921 38.3982 30.2176 38.8922 34.0551 28.2362C39.1226 14.1573 27.2395 0 27.2395 0Z" fill="#3A7F0D"/>
<path d="M11.7858 37.5914C23.4858 33.1554 31.9989 22.7637 33.1738 10.3585C30.782 4.22924 27.2395 0 27.2395 0C27.2395 0 30.7732 8.21275 15.6284 13.7292C7.39897 16.7259 1.07832 24.4066 8.62517 36.2714C9.25017 30.9681 11.9301 19.2748 23.4539 16.6065C23.4532 16.6066 12.7595 20.4071 11.7858 37.5914Z" fill="#49A010"/>
<path d="M7.45767 14.003C8.06174 14.003 8.55144 13.5378 8.55144 12.9639C8.55144 12.39 8.06174 11.9248 7.45767 11.9248C6.85359 11.9248 6.36389 12.39 6.36389 12.9639C6.36389 13.5378 6.85359 14.003 7.45767 14.003Z" fill="#3A7F0D"/>
<path d="M10.8951 12.667C11.3266 12.667 11.6764 12.3347 11.6764 11.9249C11.6764 11.515 11.3266 11.1827 10.8951 11.1827C10.4637 11.1827 10.1139 11.515 10.1139 11.9249C10.1139 12.3347 10.4637 12.667 10.8951 12.667Z" fill="#49A010"/>
<path d="M10.192 6.72954C11.2707 6.72954 12.1451 5.89884 12.1451 4.87411C12.1451 3.84938 11.2707 3.01868 10.192 3.01868C9.11338 3.01868 8.23895 3.84938 8.23895 4.87411C8.23895 5.89884 9.11338 6.72954 10.192 6.72954Z" fill="#49A010"/>
<path d="M16.2076 9.69831C16.5528 9.69831 16.8326 9.43248 16.8326 9.10456C16.8326 8.77664 16.5528 8.5108 16.2076 8.5108C15.8625 8.5108 15.5826 8.77664 15.5826 9.10456C15.5826 9.43248 15.8625 9.69831 16.2076 9.69831Z" fill="#49A010"/>
<path d="M21.4426 7.4717C22.435 7.4717 23.2395 6.70745 23.2395 5.76469C23.2395 4.82193 22.435 4.05768 21.4426 4.05768C20.4502 4.05768 19.6458 4.82193 19.6458 5.76469C19.6458 6.70745 20.4502 7.4717 21.4426 7.4717Z" fill="#49A010"/>
</svg>
