<svg width="26" height="24" viewBox="0 0 26 24" fill="none" xmlns="http://www.w3.org/2000/svg">
<path d="M18.1571 18.43H14.021L9.41951 21.39C9.26422 21.4901 9.08374 21.5476 8.89733 21.5563C8.71091 21.565 8.52556 21.5245 8.36103 21.4393C8.1965 21.3541 8.05898 21.2273 7.96312 21.0725C7.86727 20.9176 7.81669 20.7405 7.81676 20.56V18.43C4.71467 18.43 2.64661 16.43 2.64661 13.43V7.43C2.64661 4.43 4.71467 2.43 7.81676 2.43H18.1571C21.2592 2.43 23.3272 4.43 23.3272 7.43V13.43C23.3272 16.43 21.2592 18.43 18.1571 18.43Z" stroke="#0E2954" stroke-width="1.5" stroke-miterlimit="10" stroke-linecap="round" stroke-linejoin="round"/>
<path d="M12.9869 11.36V11.15C12.9869 10.47 13.4212 10.11 13.8555 9.82C14.2795 9.54 14.7034 9.18 14.7034 8.52C14.7034 7.6 13.9382 6.86 12.9869 6.86C12.0356 6.86 11.2704 7.6 11.2704 8.52M12.9818 13.75H12.9921" stroke="#0E2954" stroke-width="1.5" stroke-linecap="round" stroke-linejoin="round"/>
</svg>
