<svg width="50" height="50" viewBox="0 0 50 50" fill="none" xmlns="http://www.w3.org/2000/svg"><rect width="50" height="50" fill="#2A619A"></rect><path d="M30.5 7C30.5 10.1268 28.4038 12.5 26 12.5C23.5962 12.5 21.5 10.1268 21.5 7C21.5 3.8732 23.5962 1.5 26 1.5C28.4038 1.5 30.5 3.8732 30.5 7Z" stroke="#ACA464"></path><path d="M26 15C26.2222 14.4167 26.7111 13.2 26.8889 13L28 14.5L26 15Z" stroke="#ACA464"></path><path d="M24.8679 4.19922C24.699 4.34937 24.2372 4.43715 24.1646 4.691C24.103 4.90658 23.8484 5.29807 23.6728 5.43851C23.4492 5.6174 23.363 6.14315 23.363 6.41225C23.363 6.82097 23.186 7.07879 23.186 7.4745" stroke="#ACA464" stroke-linecap="round"></path><path d="M13.127 7.92054C12.8866 7.63515 10.9287 8.44909 10.7699 8.66179C10.6619 8.80652 9.44286 9.64447 9.38827 9.63013C9.00504 9.52942 9.91001 11.0091 10.1237 11.1771C10.3975 11.3924 10.5176 11.6321 10.6904 11.8667C10.9625 12.2361 10.8503 12.5624 11.0141 12.88C11.3454 13.5226 10.59 13.8187 10.1343 14.1874C9.84542 14.4211 9.38846 14.4702 9.23135 14.8182C9.13942 15.0218 8.60134 15.3215 8.35682 15.4239C7.96216 15.5892 7.77928 16.905 7.65356 17.2504C7.38454 17.9895 6.95814 18.6853 6.6989 19.3976" stroke="#5580A4" stroke-linecap="round"></path><path d="M7.59973 33.9873C7.48827 34.461 6.58685 34.8666 6.24842 35.2491C5.92671 35.6128 5.56552 36.073 5.18348 36.3678C4.91549 36.5745 4.33625 36.7513 4.22593 37.1374C4.07592 37.6624 5.94695 37.209 6.14998 37.209" stroke="#2A619A" stroke-linecap="round"></path><path d="M7.27757 38.4976C7.27757 36.7184 4.02421 38.8911 4.94186 39.6252C5.22352 39.8505 5.05824 40.3872 5.41616 40.5917C5.56782 40.6784 5.82782 41.214 5.82782 41.3971C5.82782 42.0973 6.93015 42.406 7.43866 42.2026C8.68927 41.7023 10.6603 39.2328 10.6603 37.7728C10.6603 36.0244 9.1242 35.1938 7.68923 34.7838C5.8108 34.2471 4.5023 34.579 3.1252 35.9561C2.38417 36.6971 2.67711 37.7835 2.36453 38.6587C2.17643 39.1854 2.32288 39.6795 2.43612 40.189C2.51332 40.5364 2.75428 41.0375 2.76723 41.3614C2.81834 42.639 3.72393 44.8599 5.18349 44.941C5.45404 44.956 6.16201 45.0795 6.34687 45.2274C6.60353 45.4327 7.23151 45.1021 7.5192 45.1021C8.29833 45.1021 9.41388 44.636 9.85491 43.9745" stroke="#B96DAD" stroke-linecap="round"></path><path d="M39.8952 22.7896C40.3089 22.4218 40.573 21.9595 40.9333 21.5009C41.3448 20.9771 41.621 20.0992 42.1146 19.729C42.7431 19.2576 42.9384 18.2955 43.5106 17.805C43.8035 17.5539 43.9967 16.8232 43.6001 17.7155C43.3972 18.1721 43.0945 18.535 42.8842 18.9952C42.7879 19.2058 42.2895 20.3554 41.9087 20.3554C41.7125 20.3554 41.6854 20.0056 41.506 19.9259C41.324 19.845 41.0503 19.8183 40.8975 19.6932C40.5871 19.4393 40.2006 19.317 39.9668 18.9594C39.7967 18.6992 39.8445 18.4471 39.573 18.2435C39.3549 18.0799 39.3222 17.352 39.2598 17.0711C39.1775 16.701 39.4243 17.1461 39.5014 17.2233C39.8839 17.6057 40.1784 17.9897 40.5395 18.3509C40.9657 18.7771 41.2126 19.7562 41.8998 19.8811C42.5181 19.9936 42.8139 20.4003 42.9647 20.9282C43.0474 21.2177 43.371 21.6173 43.5643 21.8589C43.9688 22.3645 43.5438 22.1453 42.9558 22.1453C41.9259 22.1453 42.7109 21.4017 42.2309 21.0177C42.0907 20.9055 41.8282 19.8637 41.8282 19.6485C41.8282 18.7004 41.8282 17.6387 41.8282 16.5968C41.8282 15.7329 41.506 15.8401 41.506 16.7042C41.506 17.3103 41.5571 17.903 41.3807 18.4761C41.0479 19.558 41.506 20.8826 41.506 21.9842C41.506 22.2288 41.506 22.4734 41.506 22.718C41.506 22.9549 41.7747 23.5564 41.5776 23.425C41.3563 23.2774 41.506 22.1699 41.506 21.9036C41.506 21.1767 41.436 21.1803 40.987 20.7313C40.7476 20.492 40.1403 20.3733 39.8057 20.3733C38.9716 20.3733 38.7723 20.6934 38.1233 20.9819C37.6787 21.1795 38.5612 20.7882 38.8034 20.5702C39.8446 19.6331 40.4496 19.2155 41.7566 19.8096C42.2437 20.031 43.3788 20.021 43.9223 20.0512C44.0906 20.0605 44.5669 19.962 44.6919 20.087C44.9196 20.3147 44.5624 20.5344 45.0499 20.5344" stroke="#B96DAD" stroke-linecap="round"></path><path d="M39.0674 40.2392C39.2796 40.0004 39.3823 39.0547 39.4586 38.7114C39.529 38.3946 39.6637 37.5303 39.9309 37.3165C40.0997 37.1815 39.9913 36.6418 40.1302 36.4161C40.3113 36.1218 40.1859 35.7522 40.4254 35.4861C40.5435 35.3549 40.6407 34.9806 40.6616 34.7923C40.6839 34.5919 41.0411 34.2716 41.193 34.1281C41.693 33.6558 41.9139 33.5967 42.5879 33.5967C42.829 33.5967 43.6506 33.9947 43.7098 34.2019C43.8355 34.642 44.2736 34.9014 44.4848 35.3237C44.7229 35.8001 44.6471 36.3942 44.6471 36.9179C44.6471 37.8971 44.765 38.9961 44.5069 39.8997C44.4816 39.9883 44.1966 40.4139 44.1157 40.5049C43.96 40.6801 43.9307 40.961 43.8205 41.1691C43.657 41.478 43.4752 42.3648 43.1858 42.3648C42.9075 42.3648 41.8967 42.5137 41.7244 42.2984C41.5542 42.0856 41.2358 42.3474 41.0602 42.04C40.9217 41.7977 40.6607 41.9319 40.5288 41.767C40.2763 41.4513 39.927 41.302 39.466 41.302C39.1532 41.302 38.6487 40.5049 38.8017 40.5049" stroke="#5580A4" stroke-linecap="round"></path><path d="M41.0602 40.5049C40.7851 40.5393 40.6704 41.2106 40.5583 41.4348C40.2938 41.9639 39.9737 42.5161 39.7022 43.029C39.5237 43.3662 39.2143 43.8434 38.9641 44.1214C38.856 44.2415 38.9696 44.5339 38.9272 44.6823C38.8954 44.7935 38.7227 44.9141 38.6689 45.0218" stroke="#5580A4" stroke-linecap="round"></path><path d="M41.193 37.1834C41.193 36.4907 41.2115 37.3264 41.0307 37.5525C40.9051 37.7094 40.5785 38.2214 40.7945 38.1134" stroke="#5580A4" stroke-linecap="round"></path><path d="M42.9201 37.184C42.6063 36.831 42.5215 37.8263 42.5215 38.1803C42.5215 38.4344 42.268 38.5706 42.2558 38.7782C42.2403 39.0418 42.2558 39.3111 42.2558 39.5753" stroke="#5580A4" stroke-linecap="round"></path><path d="M26.9528 45.0137C26.6974 45.3742 26.1943 45.7369 25.8623 45.9266C25.7595 45.9854 25.5003 46.2871 25.4439 46.3831C25.3525 46.5384 25.0639 46.7814 25.0762 46.7761C25.2147 46.7168 25.5626 47.3899 25.9257 47.4101C26.8625 47.4621 26.0846 47.7994 25.8116 48.2089" stroke="#ACA464" stroke-linecap="round"></path><path d="M20.1957 26.0819C20.2069 25.6903 19.8563 25.8125 19.64 25.9523C19.5207 26.0294 19.0802 25.8059 18.8848 25.8412C18.6873 25.877 18.352 25.7348 18.1229 25.7026C17.8326 25.6617 17.4319 25.0413 17.1677 25.0475C16.7757 25.0567 16.5735 24.5033 16.1734 24.839C15.8985 25.0697 15.6669 25.2209 15.3611 25.3799C14.8726 25.634 14.1177 25.9827 14.4247 26.6705C14.4746 26.7824 14.3049 27.1328 14.3863 27.3152C14.4766 27.5176 14.8049 27.9033 15.0118 27.9324C15.1711 27.9548 15.2971 28.0554 15.3958 28.173C15.5513 28.3583 15.6593 28.2113 15.8225 28.3363C16.0874 28.5394 16.3313 28.2402 16.6054 28.2338C16.9898 28.2248 17.2133 27.9885 17.4983 27.7494C17.7588 27.5309 18.0292 27.7181 18.1992 27.6082C18.3464 27.5131 18.7198 27.3209 18.9111 27.3915C19.2113 27.5023 19.5155 27.567 19.7335 27.6615" stroke="#6D70B9" stroke-linecap="round"></path><path d="M20.8077 26.5679C20.4031 26.0856 20.6988 24.8319 20.7705 24.2156C20.8536 23.5016 21.0105 22.6192 21.2727 21.9735C21.4001 21.6597 21.4423 21.3035 21.6216 20.969C21.7682 20.6955 21.9803 20.4405 22.0814 20.1363C22.185 19.8248 23.2312 18.8476 23.5588 19.1945C23.7556 19.4028 23.9871 19.5274 24.1964 19.7768C24.3167 19.9201 24.3261 20.0397 24.4072 20.1958C24.4979 20.3701 24.3227 20.4286 24.4109 20.5651C24.6406 20.9204 24.1433 21.5977 24.1916 21.9409C24.2351 22.2511 23.9363 22.3753 23.9432 22.6707C23.9496 22.9452 23.6969 23.2723 23.6614 23.5775C23.5987 24.116 23.4571 24.9407 23.0243 25.3038" stroke="#6D70B9" stroke-linecap="round"></path><path d="M14.5905 32.8292C14.1302 32.2806 15.6913 33.7478 16.2737 34.1645C16.9691 34.6619 17.6801 35.0721 18.3203 35.6665C18.6046 35.9304 18.9056 36.0188 19.1627 36.3252C19.3719 36.5745 19.5811 36.8238 19.7903 37.0731C19.997 37.3195 20.2583 37.5647 20.4252 37.8397C20.5339 38.0188 20.9037 38.6811 20.9043 38.8446C20.9049 39.0255 21.2349 39.5327 21.3123 39.7353C21.4024 39.9709 21.6651 40.1951 21.8268 40.3878C22.15 40.773 22.5249 41.0204 23.0231 41.064C23.6255 41.1167 24.0386 40.9636 24.6262 40.7947C25.2406 40.6181 25.5172 40.047 25.9811 39.6578C26.2563 39.4268 26.5315 39.1959 26.8068 38.965C27.1257 38.6973 27.253 38.2926 27.5828 38.0159C28.1587 37.5326 28.738 37.0796 29.2133 36.507C29.9286 35.6453 30.9399 35.1355 31.8811 34.7154C32.3422 34.5096 32.9251 34.5567 33.3027 34.1018C33.4421 33.9339 33.6682 33.5804 33.7654 33.3908C33.9278 33.0743 34.2339 32.8585 34.4249 32.5395C35.1139 31.3885 35.7146 30.31 36.2007 29.1128C36.4335 28.5397 35.6147 28.3708 35.3033 28.2603C34.8597 28.1029 34.6368 28.0158 34.2754 27.7159C33.9664 27.4593 33.6915 27.1947 33.3282 27.021C32.5698 26.6583 31.8933 25.3583 31.5328 24.6544C31.2477 24.098 30.6638 23.5794 30.2645 23.1035C29.81 22.5619 29.4537 22.2941 28.8753 22.7794C28.7221 22.908 28.4311 22.8173 28.265 22.8115C27.9254 22.7997 27.8698 22.9023 27.5907 23.1125C27.2862 23.3418 26.9203 23.0307 26.5772 23.2264C26.1766 23.4548 26.2186 23.5685 25.7722 23.5294C25.0137 23.4631 24.9147 23.8682 24.4094 24.2922C23.93 24.6945 23.4276 24.5125 23.042 25.1086C22.5517 25.8666 21.8794 25.9683 21.256 26.4913C20.7471 26.9184 20.4378 27.4759 19.9458 27.8887C19.41 28.3383 18.8211 28.5714 18.4265 29.1553C18.1342 29.5877 17.5307 29.6172 17.1523 29.9348C16.8222 30.2118 16.5043 30.6523 16.1135 30.9554C15.8689 31.1451 15.5902 31.0966 15.3306 31.3144C15.1135 31.4965 15.0811 31.7255 14.9438 31.9286C14.7962 32.1471 14.3391 33.0402 14.7654 32.6825" stroke="#98B7D1" stroke-linecap="round"></path><path d="M17.3434 34.689C17.5542 34.5121 17.7812 34.3626 17.8983 34.1076C17.9736 33.9434 17.9028 33.7728 18.0412 33.6566C18.2889 33.4487 18.5366 33.2409 18.7843 33.0331C19.4728 32.4553 20.3488 32.1672 21.0635 31.5675C21.8037 30.9464 22.6655 30.7585 23.4064 30.1974C23.9563 29.781 24.6286 29.2313 25.257 28.9508C25.5581 28.8164 25.7907 28.6437 26.0741 28.4058C26.3425 28.1807 26.6439 28.2257 26.9153 27.9979C27.2364 27.7285 27.3183 27.3618 27.6282 27.1018C27.897 26.8763 28.1657 26.6508 28.4344 26.4253C28.6867 26.2136 28.7695 25.9952 29.0167 25.7878C29.2664 25.5782 29.6055 25.4427 29.8768 25.215C30.0921 25.0344 31.1128 24.6383 31.3363 24.7352" stroke="#98B7D1" stroke-linecap="round"></path><path d="M19.965 27.8714C19.41 27.2099 21.3226 28.9568 21.8776 29.6182C22.266 30.0811 22.7679 30.5016 23.1713 30.9824C23.5977 31.4905 23.7858 32.0698 24.2068 32.5715C25.575 34.2021 27.1077 35.4961 28.4708 37.1205" stroke="#98B7D1" stroke-linecap="round"></path><path d="M22.5425 25.2627C23.2894 26.1528 24.1871 26.8676 24.9179 27.7385C25.8335 28.8296 26.749 29.9207 27.6645 31.0118C27.9718 31.378 27.9814 31.9971 28.4787 32.1991C28.7971 32.3284 29.2614 32.7374 29.4798 32.9976C29.6522 33.2031 29.7735 33.2623 29.9714 33.3962C30.154 33.5195 30.3542 33.7859 30.5543 33.8837C30.9953 34.0991 31.3447 34.51 31.6633 34.8897" stroke="#98B7D1" stroke-linecap="round"></path></svg>