<svg width="418" height="316" viewBox="0 0 418 316" fill="none" xmlns="http://www.w3.org/2000/svg">
<g clip-path="url(#clip0_1_282)">
<path d="M237.825 178.809C238.588 178.73 239.322 178.495 239.977 178.119C240.632 177.744 241.192 177.239 241.617 176.638C242.042 176.038 242.322 175.357 242.437 174.643C242.552 173.93 242.5 173.202 242.283 172.509L257.453 162.314L248.413 159.039L235.394 169.222C234.181 169.642 233.175 170.465 232.565 171.536C231.955 172.606 231.783 173.851 232.083 175.033C232.383 176.214 233.133 177.252 234.192 177.948C235.25 178.644 236.543 178.95 237.825 178.809Z" fill="#FFB7B7"/>
<path d="M246.249 172.094L241.217 164.006L241.323 163.891L261.628 142.142L277.393 116.847L291.082 118.488L291.284 122.381L291.244 122.44L269.494 153.201L269.471 153.22L246.249 172.094Z" fill="#3F3D56"/>
<path d="M313.332 308.939H305.591L301.907 280.843H313.333L313.332 308.939Z" fill="#FFB7B7"/>
<path d="M315.306 316H290.344V315.702C290.345 313.279 291.368 310.954 293.19 309.241C295.011 307.527 297.482 306.564 300.057 306.563H315.305L315.306 316Z" fill="#2F2E41"/>
<path d="M246.704 308.701L239.174 307.009L242.526 278.876L253.639 281.373L246.704 308.701Z" fill="#FFB7B7"/>
<path d="M246.881 315.999L222.601 310.544L222.674 310.255C223.273 307.897 224.842 305.859 227.038 304.59C229.233 303.321 231.874 302.924 234.381 303.487L249.21 306.818L246.881 315.999Z" fill="#2F2E41"/>
<path d="M276.791 104.004V91.7423C276.791 87.3848 278.631 83.2058 281.906 80.1246C285.181 77.0434 289.622 75.3124 294.253 75.3124C298.885 75.3124 303.326 77.0434 306.601 80.1246C309.876 83.2058 311.716 87.3848 311.716 91.7423V104.004C311.715 104.588 311.467 105.149 311.028 105.562C310.588 105.976 309.993 106.209 309.371 106.21H279.137C278.515 106.209 277.919 105.976 277.48 105.563C277.04 105.149 276.792 104.589 276.791 104.004Z" fill="#2F2E41"/>
<path d="M289.944 106.025C297.015 106.025 302.747 100.632 302.747 93.9788C302.747 87.326 297.015 81.9329 289.944 81.9329C282.873 81.9329 277.141 87.326 277.141 93.9788C277.141 100.632 282.873 106.025 289.944 106.025Z" fill="#FFB7B7"/>
<path d="M272.66 92.7229C272.665 89.2772 274.121 85.9737 276.711 83.5372C279.3 81.1008 282.811 79.7302 286.474 79.7263H289.08C292.742 79.7302 296.253 81.1008 298.843 83.5372C301.433 85.9737 302.889 89.2772 302.893 92.7229V92.9682H297.385L295.507 88.0189L295.131 92.9682H292.284L291.335 90.4712L291.145 92.9682H272.66V92.7229Z" fill="#2F2E41"/>
<path d="M297.41 157.555L264.813 156.388L262.991 136.323C261.585 132.651 261.563 129.495 262.923 126.951C264.093 124.86 266.059 123.261 268.428 122.474L275.561 114.369C276.478 113.327 277.63 112.49 278.934 111.918C280.237 111.346 281.659 111.054 283.097 111.063L301.631 111.182C302.077 110.929 304.787 109.634 310.131 111.812C315.927 114.176 314.581 122.388 314.567 122.47L314.553 122.547L314.49 122.6L302.163 132.369L297.41 157.555Z" fill="#3F3D56"/>
<path d="M265.075 154.232L249.656 180.682L237.966 301.015L251.174 304.81L274.553 210.677L301.684 302.139L317.519 302.511L306.739 196.963L297.318 156.099L265.075 154.232Z" fill="#2F2E41"/>
<path d="M269.629 162.171C269.303 161.917 268.952 162.348 268.848 163.134L265.64 186.98C265.535 187.768 265.714 188.608 266.04 188.866L305.925 220.03C306.252 220.283 306.602 219.853 306.707 219.067L309.914 195.221C310.019 194.433 309.841 193.593 309.515 193.335L269.629 162.171Z" fill="#6C63FF"/>
<path d="M306.268 197.052C306.839 196.57 307.29 195.976 307.59 195.312C307.89 194.648 308.032 193.931 308.006 193.209C307.98 192.488 307.786 191.782 307.438 191.139C307.09 190.496 306.596 189.933 305.992 189.488L312.012 172.888L302.633 175.18L298.359 190.592C297.633 191.597 297.324 192.818 297.491 194.023C297.657 195.228 298.288 196.333 299.264 197.13C300.239 197.926 301.491 198.359 302.783 198.344C304.074 198.33 305.315 197.87 306.271 197.052L306.268 197.052Z" fill="#FFB7B7"/>
<path d="M308.958 186.978L299.858 183.162L302.915 154.204L300.068 125.004L312.217 118.835L314.791 121.889V121.958L316.155 158.882L316.148 158.91L308.958 186.978Z" fill="#3F3D56"/>
<path d="M94.8838 111.994C106.684 111.994 116.249 102.994 116.249 91.8914C116.249 80.7891 106.684 71.7888 94.8838 71.7888C83.0838 71.7888 73.5181 80.7891 73.5181 91.8914C73.5181 102.994 83.0838 111.994 94.8838 111.994Z" fill="#6C63FF"/>
<path d="M99.3041 106.512C94.9679 106.512 90.7291 105.302 87.1237 103.036C83.5183 100.769 80.7082 97.5476 79.0488 93.7784C77.3894 90.0091 76.9552 85.8615 77.8011 81.8601C78.647 77.8586 80.7351 74.1831 83.8012 71.2982C86.8673 68.4133 90.7738 66.4486 95.0267 65.6527C99.2795 64.8567 103.688 65.2652 107.694 66.8265C111.7 68.3877 115.124 71.0316 117.533 74.4239C119.942 77.8161 121.228 81.8043 121.228 85.8841C121.221 91.3531 118.91 96.5963 114.799 100.464C110.689 104.331 105.117 106.506 99.3041 106.512ZM99.3041 66.3068C95.1887 66.3068 91.1658 67.4549 87.744 69.6061C84.3222 71.7573 81.6552 74.8149 80.0803 78.3922C78.5054 81.9696 78.0933 85.9059 78.8962 89.7036C79.6991 93.5013 81.6808 96.9897 84.5908 99.7276C87.5008 102.466 91.2084 104.33 95.2446 105.086C99.2809 105.841 103.465 105.453 107.267 103.971C111.069 102.49 114.319 99.9804 116.605 96.7609C118.891 93.5413 120.112 89.7562 120.112 85.8841C120.105 80.6937 117.911 75.7176 114.01 72.0474C110.109 68.3772 104.821 66.3127 99.3041 66.3068Z" fill="#3F3D56"/>
<path d="M86.9238 82.1599C86.7004 82.2946 86.4492 82.3833 86.1868 82.4202C85.9244 82.4571 85.6567 82.4414 85.4012 82.374L68.3877 78.3681C66.9611 80.226 65.0455 81.7029 62.829 82.654C60.6126 83.605 58.1713 83.9975 55.745 83.7929C53.4676 83.598 51.2755 82.8819 49.3598 81.707C47.4441 80.5321 45.8631 78.9341 44.7544 77.0523C43.6458 75.1705 43.0433 73.0621 42.9995 70.9109C42.9557 68.7598 43.4719 66.6312 44.5031 64.7108C45.5344 62.7905 47.0492 61.1367 48.9157 59.8936C50.7821 58.6505 52.9435 57.8559 55.2112 57.5792C57.479 57.3024 59.7842 57.5519 61.926 58.3057C64.0678 59.0596 65.981 60.2951 67.4988 61.9044C68.7452 63.2304 69.6963 64.7781 70.2961 66.456C70.8959 68.1338 71.1321 69.9078 70.9907 71.673L86.7361 78.9403C87.1768 79.1324 87.523 79.4755 87.7041 79.8995C87.8851 80.3235 87.8875 80.7966 87.7106 81.2222C87.5615 81.6058 87.2858 81.9345 86.9238 82.1599Z" fill="#3F3D56"/>
<path d="M57.0045 76.6558C60.5309 76.6558 63.3897 73.9661 63.3897 70.6481C63.3897 67.3301 60.5309 64.6404 57.0045 64.6404C53.478 64.6404 50.6193 67.3301 50.6193 70.6481C50.6193 73.9661 53.478 76.6558 57.0045 76.6558Z" fill="#6C63FF"/>
<path d="M108.825 43.4833C108.437 43.7152 107.978 43.8164 107.522 43.7701C107.038 43.7317 106.587 43.521 106.263 43.1811C105.938 42.8411 105.764 42.3974 105.775 41.9406L105.79 25.4387C103.77 24.6797 101.966 23.4888 100.52 21.9602C99.0735 20.4317 98.0251 18.6075 97.4577 16.6319C96.8902 14.6563 96.8191 12.5835 97.2501 10.5776C97.6811 8.57172 98.6023 6.68772 99.9409 5.07467C102.182 2.37357 105.453 0.599268 109.06 0.127514C112.667 -0.344239 116.328 0.523601 119.267 2.54724C122.207 4.57088 124.193 7.59142 124.806 10.9692C125.42 14.347 124.612 17.8168 122.554 20.6438C121.488 22.1026 120.122 23.3455 118.537 24.299C116.952 25.2525 115.179 25.8972 113.325 26.1949L109.639 42.3284C109.592 42.5624 109.496 42.7852 109.356 42.9836C109.217 43.182 109.036 43.3519 108.825 43.4833Z" fill="#E6E6E6"/>
<path d="M110.997 19.1874C114.523 19.1874 117.382 16.4976 117.382 13.1797C117.382 9.86169 114.523 7.17194 110.997 7.17194C107.471 7.17194 104.612 9.86169 104.612 13.1797C104.612 16.4976 107.471 19.1874 110.997 19.1874Z" fill="#CCCCCC"/>
<path d="M178.282 82.7174C176.443 83.8416 174.351 84.5458 172.171 84.7738C169.992 85.0019 167.786 84.7476 165.73 84.0311C163.968 83.4109 162.356 82.4646 160.989 81.2481C159.622 80.0316 158.529 78.5696 157.773 76.9486L140.244 77.4873C139.762 77.5021 139.291 77.3484 138.922 77.0558C138.553 76.7633 138.312 76.3526 138.245 75.9028C138.179 75.4531 138.292 74.9961 138.562 74.62C138.832 74.2438 139.241 73.9751 139.71 73.8657L156.73 69.8881C157.024 67.8603 157.815 65.9247 159.042 64.2344C160.268 62.5442 161.896 61.1457 163.796 60.1497C165.696 59.1536 167.817 58.5873 169.99 58.4956C172.163 58.4038 174.329 58.7892 176.316 59.6211C178.619 60.5851 180.603 62.1154 182.06 64.051C183.516 65.9865 184.391 68.2557 184.592 70.6197C184.793 72.9837 184.313 75.355 183.203 77.484C182.092 79.613 180.392 81.4209 178.282 82.7174Z" fill="#E6E6E6"/>
<path d="M170.633 77.6836C174.159 77.6836 177.018 74.9939 177.018 71.6759C177.018 68.3579 174.159 65.6682 170.633 65.6682C167.106 65.6682 164.247 68.3579 164.247 71.6759C164.247 74.9939 167.106 77.6836 170.633 77.6836Z" fill="#CCCCCC"/>
<path d="M128.818 135.506C125.781 137.357 122.1 138.03 118.546 137.386C114.993 136.742 111.842 134.829 109.753 132.049C107.664 129.269 106.798 125.836 107.338 122.469C107.878 119.102 109.78 116.062 112.648 113.985L107.852 98.1127C107.72 97.6759 107.765 97.2086 107.977 96.8008C108.189 96.3931 108.555 96.0737 109.002 95.9043C109.45 95.7348 109.949 95.7273 110.402 95.8832C110.855 96.039 111.231 96.3473 111.458 96.7484L119.677 111.325C122.099 111.079 124.548 111.43 126.782 112.343C129.016 113.257 130.96 114.701 132.422 116.534C133.57 117.978 134.391 119.627 134.834 121.381C135.278 123.135 135.335 124.956 135.001 126.731C134.668 128.506 133.951 130.198 132.895 131.703C131.84 133.207 130.468 134.492 128.863 135.478L128.818 135.506Z" fill="#3F3D56"/>
<path d="M121.197 130.455C124.723 130.455 127.582 127.765 127.582 124.447C127.582 121.129 124.723 118.439 121.197 118.439C117.67 118.439 114.812 121.129 114.812 124.447C114.812 127.765 117.67 130.455 121.197 130.455Z" fill="#6C63FF"/>
<path d="M48.2222 145.518C46.0577 146.838 43.5481 147.57 40.9697 147.635C38.3912 147.7 35.8438 147.094 33.6075 145.885C31.3713 144.675 29.5329 142.909 28.2946 140.78C27.0563 138.651 26.466 136.242 26.5888 133.818C26.7115 131.394 27.5424 129.048 28.9902 127.04C30.438 125.031 32.4465 123.437 34.7948 122.433C37.1431 121.429 39.7402 121.054 42.3004 121.349C44.8607 121.644 47.2848 122.598 49.3063 124.105L64.5145 115.887C64.9329 115.661 65.4255 115.589 65.8974 115.684C66.3693 115.779 66.787 116.035 67.07 116.403C67.3531 116.771 67.4815 117.224 67.4306 117.676C67.3796 118.127 67.1528 118.545 66.7939 118.849L53.75 129.879C54.8442 132.69 54.8933 135.767 53.8893 138.607C52.8853 141.447 50.8876 143.884 48.2222 145.518Z" fill="#E6E6E6"/>
<path d="M40.1691 140.71C43.6956 140.71 46.5544 138.02 46.5544 134.702C46.5544 131.384 43.6956 128.695 40.1691 128.695C36.6427 128.695 33.7839 131.384 33.7839 134.702C33.7839 138.02 36.6427 140.71 40.1691 140.71Z" fill="#CCCCCC"/>
<path d="M0.696137 316H417.304C417.489 316 417.666 315.931 417.796 315.808C417.927 315.685 418 315.519 418 315.345C418 315.171 417.927 315.005 417.796 314.882C417.666 314.759 417.489 314.69 417.304 314.69H0.696137C0.511511 314.69 0.334449 314.759 0.203899 314.882C0.0733488 315.005 0 315.171 0 315.345C0 315.519 0.0733488 315.685 0.203899 315.808C0.334449 315.931 0.511511 316 0.696137 316Z" fill="#CCCCCC"/>
<path d="M29.3258 297.094C30.8516 297.599 32.4898 297.725 34.0826 297.461C35.6754 297.197 37.169 296.552 38.4196 295.587C41.605 293.072 42.6031 288.928 43.4159 285.091L45.8192 273.741L40.7877 277.001C37.1692 279.345 33.4691 281.764 30.9626 285.16C28.4561 288.556 27.3636 293.19 29.3766 296.865" fill="#E6E6E6"/>
<path d="M30.1023 311.625C29.4687 307.284 28.8184 302.887 29.2622 298.499C29.6569 294.602 30.9202 290.796 33.4926 287.675C34.858 286.022 36.5195 284.605 38.4023 283.489C38.893 283.198 39.3452 283.93 38.8562 284.22C35.5984 286.157 33.0787 289.018 31.6604 292.39C30.094 296.139 29.8422 300.226 30.1124 304.208C30.2754 306.617 30.6215 309.009 30.9704 311.399C30.9979 311.507 30.9807 311.621 30.9223 311.717C30.864 311.814 30.7689 311.886 30.6561 311.919C30.5411 311.948 30.4185 311.934 30.315 311.878C30.2114 311.823 30.1352 311.732 30.1029 311.624L30.1023 311.625Z" fill="#F2F2F2"/>
<path d="M34.6609 304.658C35.3153 305.594 36.2147 306.356 37.2727 306.869C38.3306 307.383 39.5114 307.632 40.7011 307.591C43.7586 307.455 46.3076 305.447 48.6025 303.541L55.3896 297.903L50.898 297.701C47.668 297.555 44.3543 297.42 41.2772 298.357C38.2002 299.294 35.3632 301.55 34.8016 304.546" fill="#E6E6E6"/>
<path d="M28.3125 314.12C31.3611 309.044 34.8998 303.405 41.2164 301.6C42.9735 301.101 44.8159 300.923 46.6442 301.075C47.2203 301.122 47.0768 301.958 46.5013 301.911C43.4368 301.671 40.3779 302.431 37.8396 304.064C35.4538 305.693 33.4311 307.747 31.8864 310.109C30.9006 311.521 30.0174 312.994 29.1343 314.464C28.8518 314.935 28.0273 314.596 28.3125 314.12Z" fill="#F2F2F2"/>
<path d="M374.147 297.867C372.566 298.488 370.841 298.715 369.139 298.527C367.437 298.339 365.815 297.742 364.429 296.793C360.897 294.314 359.573 289.987 358.465 285.975L355.19 274.106L360.724 277.266C364.704 279.539 368.773 281.887 371.643 285.337C374.513 288.786 375.969 293.627 374.077 297.628" fill="#6C63FF"/>
<path d="M373.629 313.965C374.333 305.599 374.939 296.189 368.941 289.251C367.271 287.324 365.226 285.716 362.914 284.511C362.187 284.131 361.644 285.237 362.37 285.617C366.232 287.653 369.231 290.878 370.862 294.75C372.439 298.467 372.847 302.501 372.795 306.473C372.763 308.905 372.557 311.331 372.355 313.755C372.288 314.529 373.564 314.748 373.629 313.965Z" fill="#F2F2F2"/>
</g>
<defs>
<clipPath id="clip0_1_282">
<rect width="418" height="316" fill="white"/>
</clipPath>
</defs>
</svg>
