<svg width="40" height="38" viewBox="0 0 40 38" fill="none" xmlns="http://www.w3.org/2000/svg">
<path d="M16 31.6666H24C30.6667 31.6666 33.3333 29.1333 33.3333 22.8V15.2C33.3333 8.86665 30.6667 6.33331 24 6.33331H16C9.33332 6.33331 6.66666 8.86665 6.66666 15.2V22.8C6.66666 29.1333 9.33332 31.6666 16 31.6666Z" stroke="#0079FF" stroke-width="1.5" stroke-linecap="round" stroke-linejoin="round"/>
<path d="M13.35 6.33335V3.16669M20 6.33335V3.16669M26.6667 6.33335V3.16669M33.3333 12.6667H36.6667M33.3333 19H36.6667M33.3333 25.3334H36.6667M26.6667 31.6667V34.8334M20.0167 31.6667V34.8334M13.35 31.6667V34.8334M3.33334 12.6667H6.66668M3.33334 19H6.66668M3.33334 25.3334H6.66668M17.5 26.9167H22.5C26.6667 26.9167 28.3333 25.3334 28.3333 21.375V16.625C28.3333 12.6667 26.6667 11.0834 22.5 11.0834H17.5C13.3333 11.0834 11.6667 12.6667 11.6667 16.625V21.375C11.6667 25.3334 13.3333 26.9167 17.5 26.9167Z" stroke="#0079FF" stroke-width="1.5" stroke-linecap="round" stroke-linejoin="round"/>
<path d="M20 15.3583L18.4333 17.955C18.0833 18.525 18.3667 19 19.0667 19H20.9333C21.6333 19 21.9167 19.475 21.5667 20.045L20 22.6417" stroke="#0079FF" stroke-width="1.5" stroke-linecap="round" stroke-linejoin="round"/>
</svg>
