<svg width="41" height="38" viewBox="0 0 41 38" fill="none" xmlns="http://www.w3.org/2000/svg">
<rect width="40" height="38" transform="translate(0.620117)" fill="white"/>
<path d="M32.2701 27.3284H26.3034M29.2868 24.5575V30.2417M29.2868 34.8334C31.4085 34.8334 33.4433 34.0327 34.9436 32.6074C36.4439 31.1821 37.2868 29.249 37.2868 27.2334C37.2868 25.2177 36.4439 23.2846 34.9436 21.8594C33.4433 20.4341 31.4085 19.6334 29.2868 19.6334C27.165 19.6334 25.1302 20.4341 23.6299 21.8594C22.1296 23.2846 21.2868 25.2177 21.2868 27.2334C21.2868 29.249 22.1296 31.1821 23.6299 32.6074C25.1302 34.0327 27.165 34.8334 29.2868 34.8334Z" stroke="#FF0000" stroke-width="1.5" stroke-miterlimit="10" stroke-linecap="round" stroke-linejoin="round"/>
<path d="M37.2867 13.7592C37.2867 16.8783 36.4367 19.6333 35.1034 22.0242C34.3568 21.2698 33.4556 20.6686 32.4553 20.2574C31.455 19.8463 30.3767 19.6339 29.2868 19.6333C24.8701 19.6333 21.2868 23.0375 21.2868 27.2333C21.2868 29.1808 22.0701 30.9542 23.3368 32.3C22.7201 32.5692 22.1534 32.7908 21.6534 32.9492C21.0868 33.1392 20.1534 33.1392 19.5868 32.9492C14.7534 31.3817 3.95345 24.8425 3.95345 13.7592C3.95345 8.86666 8.10344 4.90833 13.2201 4.90833C16.2368 4.90833 18.9368 6.30166 20.6201 8.43916C21.4799 7.34478 22.5963 6.45586 23.8809 5.84296C25.1654 5.23006 26.5826 4.91004 28.0201 4.90833C33.1368 4.90833 37.2867 8.86666 37.2867 13.7592Z" stroke="#FF0000" stroke-width="1.5" stroke-linecap="round" stroke-linejoin="round"/>
</svg>
