<svg width="1440" height="120" viewBox="0 0 1440 120" fill="none" xmlns="http://www.w3.org/2000/svg">
<path opacity="0.25" d="M-6 120V73.71C51.587 51.51 118.826 41.54 184.39 45.71C269.174 51.08 348.668 79.02 433.584 83.21C522.561 87.57 611.37 66.33 696.515 47.95C779.985 29.95 863.167 23.07 948.842 34.87C992.403 40.87 1033.01 52.71 1074.7 64.21C1186.34 95 1335.17 134.29 1440 67.53V120H-6Z" fill="#8062D6" fill-opacity="0.4"/>
<path opacity="0.5" d="M-6 120V104.19C9.665 83.08 27.3062 63.14 51.4664 47.95C113.789 8.73 192.825 9 264.619 28.42C302.155 38.57 337.027 54.49 372.671 68.22C421.98 87.22 474.771 114.22 530.321 117.89C574.015 120.74 615.756 108.47 649.134 86.33C687.417 60.94 724.23 24.33 774.009 13.33C822.739 2.54 872.035 20.02 917.56 37.61C963.085 55.2 1008.13 76.61 1058.45 80.66C1130.42 86.51 1194.95 57.78 1261.97 41.82C1298.36 33.16 1333.07 35.65 1366.92 49.32C1393.94 60.21 1424.76 76.25 1440 98.56V120H-6Z" fill="#B1B2FF" fill-opacity="0.4"/>
<path d="M-6 120V114.37C174.666 61 372.478 48.68 567.375 77.43C619.19 85.07 668.872 97.55 721.145 103.89C792.24 112.52 856.684 91.65 920.645 68.49C991.656 42.78 1061.63 24.76 1140.2 30C1244.46 37 1348.01 75.71 1440 114.81V120H-6Z" fill="#8062D6" fill-opacity="0.4"/>
</svg>
